<svg version="1.1" id="Layer_1" xmlns="http://www.w3.org/2000/svg" x="0" y="0" viewBox="0 0 256 256" style="enable-background:new 0 0 256 256" xml:space="preserve"><style>.st0{fill:#382b73}.st2{fill:#1caee4}.st3{fill:#e7ad27}.st4{fill:#009add}.st5{fill:#27c1e6}.st6{fill:#e6e7e8}.st7{fill:#fede3a}.st8{fill:#fff}.st9{fill:#d1d3d4}.st10{fill:#f7cb15}.st11{fill:#fff335}.st12{fill:#136da0}</style><switch><g><circle class="st0" cx="128" cy="128" r="119.4"/><circle cx="128" cy="128" r="103.299" style="fill:#473080"/><path class="st0" d="M211.01 171.786v-4.252c0-.478-.029-.949-.071-1.417a15.002 15.002 0 0 0-.234-1.649c-.015-.077-.035-.152-.051-.228a15.686 15.686 0 0 0-.306-1.189c-.022-.072-.041-.146-.063-.217a15.633 15.633 0 0 0-.455-1.244c-.038-.092-.078-.183-.118-.274a15.58 15.58 0 0 0-.581-1.207l-.018-.031a15.452 15.452 0 0 0-.679-1.117c-.055-.083-.109-.166-.165-.248a15.559 15.559 0 0 0-.774-1.035c-.052-.064-.107-.124-.16-.187a16.123 16.123 0 0 0-.787-.866c-.054-.055-.105-.112-.16-.166-.305-.303-.625-.59-.954-.867-.078-.066-.158-.13-.238-.194-.34-.275-.688-.541-1.051-.787a.008.008 0 0 0-.004-.002c-.023-.016-.047-.029-.07-.044a15.347 15.347 0 0 0-1.448-.852c-.077-.04-.152-.085-.23-.124v.014a15.722 15.722 0 0 0-1.527-.665l.009-.014c-.136-.051-.279-.088-.417-.135-.219-.075-.438-.15-.661-.215-.244-.072-.492-.131-.74-.191l.007-.011c-.095-.023-.193-.04-.288-.061-.131-.029-.261-.058-.393-.083-.077-.015-.153-.033-.231-.046-.34-.061-.685-.108-1.033-.147-.067-.007-.134-.016-.201-.022-.086-.008-.173-.013-.259-.02a16.55 16.55 0 0 0-.593-.037l.013-.02h-4.72v-5.771a11.924 11.924 0 0 0 7.225-6.744c.202-.199.39-.41.581-.619.107.009.21.032.319.032a3.833 3.833 0 0 0 3.833-3.833c0-.825-.266-1.584-.709-2.209a15.68 15.68 0 0 0 .601-6.141l.001-.001-.001-.009c-.016-.163-.05-.32-.071-.482-.046-.346-.09-.693-.158-1.032-.042-.209-.101-.411-.151-.617-.069-.284-.134-.569-.218-.847-.065-.215-.145-.422-.219-.632-.091-.259-.179-.52-.283-.772-.087-.211-.186-.416-.282-.622-.112-.242-.223-.484-.346-.719-.107-.203-.224-.399-.339-.596a16.462 16.462 0 0 0-.408-.672 14.508 14.508 0 0 0-.392-.563 15.912 15.912 0 0 0-.468-.626c-.142-.179-.29-.352-.439-.524-.171-.197-.345-.39-.525-.578a16.848 16.848 0 0 0-1.584-1.443c-.207-.164-.419-.32-.634-.474-.183-.13-.365-.259-.554-.382a15.94 15.94 0 0 0-.688-.418c-.192-.112-.383-.224-.58-.327a15.791 15.791 0 0 0-.741-.357c-.199-.092-.396-.186-.6-.269-.263-.108-.533-.2-.803-.294-.201-.07-.398-.145-.602-.206-.289-.087-.585-.156-.881-.227-.195-.047-.386-.102-.583-.141-.334-.066-.676-.11-1.017-.155-.167-.022-.33-.055-.498-.071a15.757 15.757 0 0 0-1.56-.079c-.499 0-.99.029-1.477.075-.153.014-.303.038-.455.056a15.484 15.484 0 0 0-1.499.256c-.271.061-.539.128-.804.202l-.001-.007c-.059.017-.116.039-.175.057-.139.041-.278.08-.416.124a16.49 16.49 0 0 0-.502.174c-.116.042-.229.087-.344.132-.075.029-.151.056-.225.086-.084.034-.171.062-.254.097-.117.05-.228.107-.343.16-.115.052-.228.108-.341.163-.191.093-.384.182-.571.282-.084.045-.165.094-.248.14-.1.056-.197.116-.295.174-.222.131-.442.264-.657.405-.139.091-.274.187-.41.282-.124.087-.253.167-.374.257l.003.018c-.164.122-.332.241-.491.37-.16.129-.31.269-.465.405-.196.172-.39.343-.577.524-.151.147-.296.298-.442.451a16.727 16.727 0 0 0-.917 1.046c-.173.218-.338.442-.5.668-.107.15-.218.298-.32.452-.032.048-.066.094-.097.142a3.84 3.84 0 0 0 .066-.657 3.827 3.827 0 0 0-3.827-3.827h2.411c.87 0 1.576-.705 1.576-1.576v-2.101c0-.809-.613-1.468-1.398-1.558-.331-6.445-4.857-11.766-10.909-13.296l.029-.376a1.05 1.05 0 0 0-1.047-1.132h-5.083a1.05 1.05 0 0 0-1.047 1.132l.029.376c-.492.124-.972.273-1.443.446.009-.276.021-.551.021-.828 0-1.135-.081-2.249-.223-3.345-.021-.161-.038-.322-.061-.482-.035-.238-.08-.474-.122-.71-.031-.174-.059-.348-.093-.521-.045-.229-.099-.455-.15-.681-.04-.177-.078-.354-.122-.528-.055-.222-.117-.441-.179-.661-.049-.176-.097-.352-.149-.526a21.787 21.787 0 0 0-.206-.641c-.058-.175-.116-.35-.177-.524a25.624 25.624 0 0 0-.232-.622 22.93 22.93 0 0 0-.691-1.629 24.378 24.378 0 0 0-.538-1.085 23.922 23.922 0 0 0-.916-1.605c-.1-.161-.203-.319-.306-.478-.115-.177-.23-.354-.349-.527-.108-.157-.22-.311-.331-.466-.122-.17-.244-.341-.37-.508-.116-.153-.236-.302-.355-.452-.129-.163-.257-.327-.39-.486-.125-.15-.255-.295-.383-.442-.134-.154-.266-.31-.404-.46-.14-.153-.285-.3-.428-.449-.133-.138-.263-.279-.398-.415a26.99 26.99 0 0 0-.848-.809c-.116-.106-.238-.206-.357-.31-.182-.16-.364-.322-.551-.477-.136-.113-.276-.219-.414-.329-.176-.14-.35-.281-.53-.416-.146-.11-.296-.215-.445-.322-.177-.128-.353-.256-.533-.379-.154-.105-.311-.205-.466-.307-.181-.118-.363-.237-.547-.351-.158-.098-.319-.191-.479-.285-.188-.11-.375-.22-.566-.326-.163-.09-.328-.176-.493-.263a22.873 22.873 0 0 0-1.086-.539 25.286 25.286 0 0 0-2.899-1.142c-.176-.057-.351-.114-.529-.167a27.881 27.881 0 0 0-.66-.188c-.176-.048-.352-.097-.53-.141a22.104 22.104 0 0 0-.687-.158c-.175-.039-.35-.079-.526-.114-.238-.047-.479-.088-.72-.129-.171-.029-.341-.06-.513-.086-.255-.038-.512-.067-.769-.098-.162-.019-.322-.042-.485-.058-.29-.029-.582-.048-.874-.067-.132-.008-.263-.021-.395-.028a26.252 26.252 0 0 0-1.29-.033h-.008c-.643 0-1.279.032-1.911.078-.131.01-.261.018-.391.03-.612.055-1.218.128-1.817.225-.109.018-.217.039-.326.058-.563.098-1.12.213-1.669.347-.071.018-.144.032-.215.05-.205.052-.408.111-.611.168l-.002.001c-.379.106-.754.22-1.125.342l-.361.122a25.5 25.5 0 0 0-1.679.644c-.061.026-.12.055-.18.081-.517.225-1.023.469-1.521.727-.091.047-.183.092-.273.14-.208.111-.413.227-.617.343l-.014.008a21.022 21.022 0 0 0-1.191.722 25.929 25.929 0 0 0-2.203 1.585l-.007.006c-.522.419-1.026.859-1.513 1.316l-.077.074a25.87 25.87 0 0 0-2.654 2.93l-.089.113a25.762 25.762 0 0 0-1.104 1.558l-.121.189a25.843 25.843 0 0 0-1.83 3.377c-.037.083-.076.164-.112.247a25.69 25.69 0 0 0-.678 1.724c-.035.1-.068.201-.102.301a25.777 25.777 0 0 0-.553 1.837l-.001.006a25.276 25.276 0 0 0-.398 1.872c-.02.114-.042.228-.061.342a25.839 25.839 0 0 0-.236 1.861c-.011.12-.018.241-.027.362-.05.653-.083 1.311-.083 1.977 0 .278.012.552.021.828-.47-.173-.951-.321-1.442-.446l.029-.376a1.05 1.05 0 0 0-1.047-1.132H94.72a1.05 1.05 0 0 0-1.047 1.132l.029.376c-6.052 1.53-10.578 6.851-10.909 13.296a1.572 1.572 0 0 0-1.398 1.558v2.101c0 .87.706 1.576 1.576 1.576h2.411a3.827 3.827 0 0 0-3.827 3.827c0 .228.029.448.067.666-.015-.023-.032-.044-.046-.066-.125-.192-.259-.378-.392-.564a15.855 15.855 0 0 0-.467-.625 17.006 17.006 0 0 0-1.448-1.586 16.942 16.942 0 0 0-1.101-.96c-.207-.164-.419-.32-.634-.474-.183-.13-.366-.259-.554-.382a15.94 15.94 0 0 0-.688-.418c-.192-.112-.383-.224-.581-.328a16.25 16.25 0 0 0-.74-.357c-.199-.091-.396-.186-.6-.27-.263-.108-.533-.2-.802-.294-.201-.069-.398-.145-.603-.206-.289-.087-.585-.156-.88-.226-.195-.047-.387-.102-.585-.141-.334-.066-.675-.11-1.016-.155-.167-.022-.33-.055-.498-.072a15.757 15.757 0 0 0-1.56-.079c-.499 0-.99.029-1.477.075-.153.014-.303.038-.455.056a15.484 15.484 0 0 0-1.499.256c-.271.061-.539.128-.804.202l-.001-.007c-.059.017-.116.039-.175.057-.139.041-.278.08-.415.124-.169.054-.336.114-.502.174-.116.042-.23.088-.345.132-.075.029-.15.056-.224.086-.084.034-.171.062-.254.097-.116.05-.228.107-.343.159-.115.052-.228.108-.342.164-.191.092-.384.182-.57.282-.084.045-.165.094-.247.14-.1.056-.198.116-.296.174-.222.131-.441.263-.656.404-.139.091-.275.187-.411.282-.124.087-.253.167-.374.257l.003.018c-.164.123-.332.241-.491.37-.159.129-.31.268-.464.404-.196.172-.391.344-.578.525-.151.147-.297.298-.442.451a16.727 16.727 0 0 0-.917 1.046c-.173.218-.338.442-.5.668-.107.15-.218.298-.32.452-.209.316-.405.642-.591.973-.042.074-.089.144-.13.218-.219.405-.417.822-.601 1.247-.063.146-.116.295-.174.443-.117.295-.229.592-.328.895-.056.17-.105.343-.155.516a15.603 15.603 0 0 0-.492 2.408c-.019.156-.044.311-.059.468-.046.49-.075.985-.075 1.487 0 .463.029.918.069 1.37.014.161.03.32.049.48.01.085.015.171.026.256l.012-.004c.113.844.282 1.672.524 2.468a3.81 3.81 0 0 0-.709 2.21 3.833 3.833 0 0 0 3.833 3.833c.109 0 .212-.023.319-.032.191.209.379.42.581.619a11.922 11.922 0 0 0 7.225 6.744v5.772h-4.72l.013.02a16.55 16.55 0 0 0-.593.037c-.086.007-.173.011-.259.02l-.202.022c-.349.039-.695.086-1.037.147-.076.014-.15.031-.226.046-.132.026-.263.055-.394.084-.096.021-.193.038-.288.061l.007.011c-.248.06-.496.12-.739.191-.224.066-.444.14-.663.215-.138.047-.28.084-.416.135l.009.014c-.523.195-1.032.416-1.527.665v-.014c-.078.039-.152.084-.229.124a16.998 16.998 0 0 0-1.447.851l-.072.045-.004.002c-.363.246-.712.513-1.053.788-.079.064-.158.127-.236.192-.33.277-.65.566-.956.869-.054.053-.104.109-.157.163-.274.28-.538.57-.791.87-.052.062-.105.121-.156.183-.273.335-.531.681-.776 1.038-.056.081-.109.162-.163.244a15.786 15.786 0 0 0-.697 1.149c-.213.393-.404.799-.583 1.211l-.116.269c-.169.408-.322.823-.457 1.248-.022.07-.04.142-.062.212-.118.392-.22.791-.307 1.195-.016.075-.035.148-.05.223-.089.443-.155.893-.206 1.348-.011.1-.019.2-.028.3-.043.47-.072.945-.072 1.426v7.165a3.418 3.418 0 0 0 3.418 3.418H88.44a3.41 3.41 0 0 0 2.846-1.529 5.585 5.585 0 0 0 3.895 1.579h65.655a5.586 5.586 0 0 0 3.896-1.58 3.413 3.413 0 0 0 2.847 1.529h40.024a3.418 3.418 0 0 0 3.418-3.418l-.011-2.912zM84.045 126.639c-.016-.163-.05-.32-.071-.482-.046-.346-.09-.693-.158-1.032-.042-.209-.101-.411-.151-.617-.069-.284-.134-.569-.218-.847-.065-.215-.146-.423-.22-.634-.091-.259-.178-.518-.282-.77-.06-.146-.126-.288-.191-.432a3.805 3.805 0 0 0 2.621 1.05c.226 0 .444-.029.659-.066.214.619.466 1.22.775 1.788a11.908 11.908 0 0 0 6.676 5.596v5.761H88.773l.013.02c-.253.011-.503.029-.753.051-.1.009-.199.016-.298.027a16.035 16.035 0 0 0-1.655.276c-.096.021-.193.038-.288.061h.001c-.153.037-.301.088-.452.129-.238.065-.477.126-.71.202-.031.01-.063.016-.093.026v.008c-.35.116-.697.239-1.035.379a3.816 3.816 0 0 0-.059-4.344 15.68 15.68 0 0 0 .601-6.141l.001-.001-.001-.008zm23.656-2.041c.308-.568.561-1.169.775-1.788.215.037.433.066.659.066.978 0 1.86-.378 2.536-.981.196-.175.375-.367.532-.579l.001-.001c.146-.197.272-.408.378-.631.01-.021.023-.04.033-.061a3.7 3.7 0 0 0 .216-.634c.012-.044.031-.085.04-.13.017-.077.02-.158.032-.237a19.54 19.54 0 0 0 8.901 6.125v6.81-.68l-7.744 3.337.01.028c-.398.017-.793.044-1.187.079l-.119.009c-1.64.152-3.234.462-4.769.909a15.77 15.77 0 0 0-1.222-.185c-.099-.011-.199-.018-.298-.027-.249-.023-.5-.041-.753-.051l.013-.02H101.023v-5.761a11.91 11.91 0 0 0 6.678-5.597zm68.878 14.822c.043.105.092.206.138.309-.05-.043-.102-.082-.152-.124l-.236-.193a15.567 15.567 0 0 0-.782-.592c.045.002.087.013.133.013.109 0 .212-.023.319-.032.191.209.378.42.58.619zm-21.604-9.226v5.761h-4.711l.013.02c-.253.011-.503.029-.753.051-.1.009-.199.016-.298.027-.413.046-.82.108-1.222.185a25.45 25.45 0 0 0-4.768-.909c-.04-.004-.081-.006-.122-.009a25.662 25.662 0 0 0-1.184-.079l.01-.028-7.743-3.337v3.337-9.467a19.545 19.545 0 0 0 8.901-6.126c.012.079.015.16.032.238.01.044.029.085.04.128.056.22.125.433.217.636.01.021.022.039.032.059.221.465.532.874.911 1.213a3.798 3.798 0 0 0 2.537.981c.226 0 .444-.029.659-.066.214.619.466 1.22.775 1.788a11.892 11.892 0 0 0 6.674 5.597zm-9.265-14.774c.03-.066.065-.13.095-.197h1.059c-.405 0-.788.08-1.154.197zm-35.421-.001a3.793 3.793 0 0 0-1.153-.196h1.059c.029.067.063.131.094.196zm-30.288 23.382c.107.009.21.032.319.032.046 0 .088-.012.133-.013-.267.189-.527.387-.781.591l-.002.001c-.078.063-.157.126-.234.191h-.001c-.05.042-.103.081-.152.124.046-.103.094-.204.137-.309.202-.196.39-.408.581-.617zm103.803 11.515v1.62h-1.672V151.527c0-.478-.029-.949-.072-1.415-.009-.101-.018-.202-.029-.303a15.55 15.55 0 0 0-.205-1.342c-.015-.077-.035-.152-.051-.228a15.124 15.124 0 0 0-.305-1.185c-.022-.073-.041-.147-.064-.219a15.559 15.559 0 0 0-.454-1.241c-.038-.092-.078-.182-.117-.273a15.86 15.86 0 0 0-.469-.985c.185.142.367.288.561.419a11.82 11.82 0 0 0 2.878 1.41v2.279l-.001 1.872zm-10.645-28.314c-.063.146-.116.295-.174.443-.117.295-.229.592-.328.895-.056.17-.105.343-.156.516a15.603 15.603 0 0 0-.492 2.408c-.02.156-.045.311-.059.468-.046.49-.075.985-.075 1.487 0 .463.029.918.069 1.37.014.161.03.32.049.48.01.085.015.171.026.256l.012-.004c.113.844.282 1.672.523 2.468a3.81 3.81 0 0 0-.059 4.345c-.338-.14-.685-.263-1.035-.379v-.008c-.031-.01-.063-.017-.093-.026-.233-.076-.472-.137-.709-.202-.152-.041-.3-.092-.453-.129-.095-.023-.193-.04-.288-.061a15.502 15.502 0 0 0-1.654-.275c-.099-.011-.199-.018-.298-.027-.25-.023-.5-.041-.753-.051l.013-.02H162.513v-5.761a11.908 11.908 0 0 0 6.676-5.596c.309-.568.561-1.169.775-1.788.215.037.433.066.659.066a3.8 3.8 0 0 0 2.605-1.038c-.023.054-.045.109-.069.163zM72.196 146.164c.289-.097.577-.195.856-.313a11.833 11.833 0 0 0 2.021-1.097c.194-.131.375-.278.561-.419a15.656 15.656 0 0 0-.585 1.255v.002c-.168.407-.322.821-.455 1.244-.022.07-.041.142-.062.213-.117.391-.219.788-.306 1.191l-.001.002c-.016.074-.035.148-.05.222v.001c-.088.442-.155.891-.205 1.346-.011.099-.019.198-.028.298-.043.47-.072.944-.072 1.424v.403h-1.672v-5.772z"/><g><path class="st2" d="M178.72 155.097h-39.951a3.413 3.413 0 0 1-3.412-3.412v-7.152c0-8.603 6.974-15.578 15.578-15.578h15.62c8.603 0 15.578 6.974 15.578 15.578v7.152a3.414 3.414 0 0 1-3.413 3.412z"/><path class="st3" d="M178.72 155.097h-39.951a3.413 3.413 0 0 1-3.412-3.412v-7.152c0-8.603 6.974-15.578 15.577-15.578h15.62c8.603 0 15.578 6.974 15.578 15.578v7.152a3.413 3.413 0 0 1-3.412 3.412z"/><path class="st4" d="m161.614 142.781 8.592-13.391a15.59 15.59 0 0 0-3.652-.435h-15.62c-1.258 0-2.48.153-3.652.435l8.591 13.388c1.342 2.093 4.399 2.096 5.741.003z"/><path class="st5" d="m150.263 128.955 6.084 9.483 2.397-3.608-3.769-5.875zM167.226 128.955l-6.085 9.483-2.397-3.608 3.77-5.875z"/><circle class="st2" cx="158.744" cy="138.984" r=".853"/><path class="st6" d="M162.514 121.924h-7.539v7.031l3.769 5.875 3.77-5.875v-.372z"/><path class="st3" d="M166.554 128.955zM169.396 129.219z"/><path class="st7" d="m170.206 129.391-4.658 7.26v18.446h5.914v-25.348a15.06 15.06 0 0 0-1.256-.358z"/><path class="st3" d="M168.414 129.067zM167.592 128.993z"/><g><path class="st3" d="M150.934 128.955zM149.078 129.067zM147.333 129.379zM148.228 129.195z"/><path class="st7" d="M147.282 129.391c-.425.103-.844.221-1.256.358v25.348h5.914V136.65l-4.658-7.259z"/></g><path class="st4" d="M142.21 155.097v-23.471c-4.135 2.801-6.854 7.536-6.854 12.907v7.152a3.413 3.413 0 0 0 3.412 3.412h3.442zM175.278 131.626v23.471h3.441a3.413 3.413 0 0 0 3.412-3.412v-7.152c.001-5.371-2.717-10.106-6.853-12.907z"/><g><path class="st8" d="M158.744 123.815c-6.561 0-11.88-5.319-11.88-11.879v-6.168c0-6.561 5.319-11.879 11.879-11.879 6.561 0 11.879 5.319 11.879 11.879v6.168c.002 6.56-5.317 11.879-11.878 11.879z"/><path class="st9" d="M158.744 123.815c-1.318 0-2.585-.215-3.77-.611v2.265c1.186.397 2.45.621 3.769.621s2.584-.224 3.769-.621v-2.265a11.85 11.85 0 0 1-3.768.611z"/><path class="st8" d="M146.865 111.936v-3.712a3.827 3.827 0 1 0 .651 7.598 11.85 11.85 0 0 1-.651-3.886zM170.624 108.223v3.712c0 1.361-.229 2.668-.651 3.885a3.827 3.827 0 1 0 .651-7.597z"/><path class="st6" d="M158.744 122.109c-6.561 0-11.88-5.319-11.88-11.88v1.706c0 6.561 5.319 11.88 11.879 11.88 6.561 0 11.879-5.319 11.879-11.88v-1.706c.002 6.561-5.317 11.88-11.878 11.88z"/><path class="st2" d="M154.601 110.379a1.439 1.439 0 1 1-2.877 0 1.439 1.439 0 0 1 2.877 0zM165.766 110.379a1.439 1.439 0 1 1-2.877 0 1.439 1.439 0 0 1 2.877 0z"/><g><path class="st6" d="M146.865 111.936v-2.085a2.199 2.199 0 1 0 0 4.398c.077 0 .15-.015.225-.023a11.919 11.919 0 0 1-.225-2.29zM170.635 111.936v-2.085a2.199 2.199 0 1 1 0 4.398c-.077 0-.15-.015-.225-.023.144-.742.225-1.506.225-2.29z"/></g></g><g><path class="st10" d="M173.231 102.983c-.394-7.66-6.73-13.749-14.487-13.749-7.758 0-14.093 6.089-14.487 13.749a1.576 1.576 0 0 0-1.379 1.563v2.101c0 .87.705 1.576 1.576 1.576h28.581c.87 0 1.576-.705 1.576-1.576v-2.101c0-.803-.602-1.466-1.38-1.563z"/><path class="st3" d="M173.035 106.122h-28.581c-.87 0-1.576-.705-1.576-1.576v2.101c0 .87.706 1.576 1.576 1.576h28.581c.87 0 1.576-.705 1.576-1.576v-2.101c0 .871-.706 1.576-1.576 1.576z"/><path class="st7" d="M167.378 106.122v-8.254a8.634 8.634 0 1 0-17.268 0v8.254h17.268z"/><path class="st11" d="M160.398 101.673h-3.309a1.05 1.05 0 0 1-1.047-.969l-.887-11.388a1.05 1.05 0 0 1 1.047-1.132h5.083a1.05 1.05 0 0 1 1.047 1.132l-.887 11.388a1.05 1.05 0 0 1-1.047.969z"/></g><g><path class="st2" d="M117.231 155.097H77.28a3.412 3.412 0 0 1-3.412-3.412v-7.152c0-8.603 6.974-15.578 15.578-15.578h15.62c8.603 0 15.578 6.974 15.578 15.578v7.152a3.413 3.413 0 0 1-3.413 3.412z"/><path class="st3" d="M117.231 155.097H77.28a3.413 3.413 0 0 1-3.412-3.412v-7.152c0-8.603 6.974-15.578 15.577-15.578h15.62c8.603 0 15.578 6.974 15.578 15.578v7.152a3.411 3.411 0 0 1-3.412 3.412z"/><path class="st4" d="m100.126 142.781 8.592-13.391a15.59 15.59 0 0 0-3.652-.435h-15.62c-1.258 0-2.48.153-3.652.435l8.591 13.388c1.342 2.093 4.398 2.096 5.741.003z"/><path class="st5" d="m88.774 128.955 6.085 9.483 2.397-3.608-3.77-5.875zM105.737 128.955l-6.085 9.483-2.396-3.608 3.769-5.875z"/><circle class="st2" cx="97.256" cy="138.984" r=".853"/><path class="st6" d="M101.025 121.924h-7.539v7.031l3.77 5.875 3.769-5.875v-.372z"/><path class="st3" d="M105.066 128.955zM107.907 129.219z"/><path class="st7" d="m108.718 129.391-4.658 7.26v18.446h5.914v-25.348a15.282 15.282 0 0 0-1.256-.358z"/><path class="st3" d="M106.925 129.067zM106.104 128.993z"/><g><path class="st3" d="M89.446 128.955zM87.59 129.067zM85.844 129.379zM86.74 129.195z"/><path class="st7" d="M85.794 129.391c-.425.103-.845.221-1.256.358v25.348h5.914V136.65l-4.658-7.259z"/></g><path class="st4" d="M80.722 155.097v-23.471c-4.135 2.801-6.854 7.536-6.854 12.907v7.152a3.413 3.413 0 0 0 3.412 3.412h3.442zM113.79 131.626v23.471h3.442a3.413 3.413 0 0 0 3.412-3.412v-7.152c-.001-5.371-2.719-10.106-6.854-12.907z"/><g><path class="st8" d="M97.256 123.815c-6.561 0-11.88-5.319-11.88-11.879v-6.168c0-6.561 5.319-11.879 11.879-11.879 6.561 0 11.879 5.319 11.879 11.879v6.168c.001 6.56-5.318 11.879-11.878 11.879z"/><path class="st9" d="M97.256 123.815c-1.318 0-2.585-.215-3.77-.611v2.265c1.186.397 2.45.621 3.769.621s2.584-.224 3.769-.621v-2.265a11.854 11.854 0 0 1-3.768.611z"/><path class="st8" d="M85.376 111.936v-3.712a3.827 3.827 0 1 0 .651 7.598 11.877 11.877 0 0 1-.651-3.886zM109.135 108.223v3.712c0 1.361-.229 2.668-.651 3.885a3.827 3.827 0 1 0 .651-7.597z"/><path class="st6" d="M97.256 122.109c-6.561 0-11.88-5.319-11.88-11.88v1.706c0 6.561 5.319 11.88 11.879 11.88 6.561 0 11.879-5.319 11.879-11.88v-1.706c.001 6.561-5.318 11.88-11.878 11.88z"/><path class="st2" d="M93.112 110.379a1.439 1.439 0 1 1-2.877 0 1.439 1.439 0 0 1 2.877 0zM104.278 110.379a1.439 1.439 0 1 1-2.877 0 1.439 1.439 0 0 1 2.877 0z"/><g><path class="st6" d="M85.376 111.936v-2.085a2.199 2.199 0 1 0 0 4.398c.077 0 .15-.015.226-.023a11.919 11.919 0 0 1-.226-2.29zM109.146 111.936v-2.085a2.199 2.199 0 1 1 0 4.398c-.077 0-.15-.015-.225-.023.145-.742.225-1.506.225-2.29z"/></g></g><g><path class="st10" d="M111.743 102.983c-.394-7.66-6.729-13.749-14.487-13.749s-14.093 6.089-14.487 13.749a1.575 1.575 0 0 0-1.379 1.563v2.101c0 .87.705 1.576 1.576 1.576h28.581c.87 0 1.576-.705 1.576-1.576v-2.101a1.578 1.578 0 0 0-1.38-1.563z"/><path class="st3" d="M111.546 106.122H82.965c-.87 0-1.576-.705-1.576-1.576v2.101c0 .87.706 1.576 1.576 1.576h28.581c.87 0 1.576-.705 1.576-1.576v-2.101c0 .871-.705 1.576-1.576 1.576z"/><path class="st7" d="M105.889 106.122v-8.254a8.634 8.634 0 1 0-17.268 0v8.254h17.268z"/><path class="st11" d="M98.91 101.673h-3.309a1.05 1.05 0 0 1-1.047-.969l-.887-11.388a1.05 1.05 0 0 1 1.047-1.132h5.082a1.05 1.05 0 0 1 1.047 1.132l-.887 11.388a1.048 1.048 0 0 1-1.046.969z"/></g></g><g><path class="st12" d="M175.68 135.833c.109 0 .212-.023.319-.032.191.209.379.421.581.619a11.936 11.936 0 0 0 4.348 5.334c.329.223.682.41 1.035.598-.041-.297-.077-.595-.135-.886-.015-.077-.035-.152-.051-.228a15.55 15.55 0 0 0-.304-1.184c-.022-.074-.041-.148-.064-.221a15.65 15.65 0 0 0-.571-1.514c-.179-.41-.368-.814-.58-1.204l-.02-.034c-.208-.382-.437-.75-.675-1.112l-.166-.25c-.244-.354-.5-.7-.772-1.033-.051-.063-.105-.123-.158-.185a15.673 15.673 0 0 0-.785-.864c-.055-.056-.106-.113-.162-.168a15.594 15.594 0 0 0-.952-.865l-.091-.074-.147-.12c-.34-.274-.686-.539-1.049-.784v4.166c.131.015.261.041.399.041zM79.435 132.604c-.329.277-.649.565-.954.867-.045.044-.086.091-.13.135l-.025.026c-.275.28-.538.57-.791.871-.051.061-.105.12-.156.182-.273.334-.53.68-.775 1.037-.055.08-.108.162-.162.243-.24.363-.47.735-.68 1.118l-.017.03c-.213.392-.403.797-.582 1.208l-.116.269a15.52 15.52 0 0 0-.456 1.245c-.022.07-.041.142-.062.213-.117.391-.219.788-.306 1.191-.016.075-.035.149-.05.225-.06.3-.098.607-.139.913.357-.191.705-.398 1.039-.624a11.964 11.964 0 0 0 3.215-3.215c.447-.661.825-1.372 1.133-2.119.202-.198.39-.41.581-.619.107.009.21.032.319.032.137 0 .268-.026.401-.04V131.625a16.1 16.1 0 0 0-1.05.785l-.237.194z"/></g><g><path class="st2" d="M88.431 171.124H48.408a3.418 3.418 0 0 1-3.418-3.418v-7.165c0-8.619 6.987-15.605 15.606-15.605h15.648c8.619 0 15.606 6.987 15.606 15.605v7.165a3.42 3.42 0 0 1-3.419 3.418z"/><path class="st12" d="M88.431 171.124H48.408a3.418 3.418 0 0 1-3.418-3.418v-7.165c0-8.619 6.987-15.605 15.605-15.605h15.648c8.619 0 15.605 6.987 15.605 15.605v7.165a3.416 3.416 0 0 1-3.417 3.418z"/><path class="st2" d="M64.091 159.896c2.023 3.154 6.632 3.154 8.656 0l8.966-13.973a15.574 15.574 0 0 0-5.47-.988H60.595c-1.925 0-3.767.351-5.47.988l8.966 13.973z"/><path class="st4" d="m71.295 158.786 8.608-13.415a15.643 15.643 0 0 0-3.659-.436H60.595a15.59 15.59 0 0 0-3.659.436l8.606 13.412c1.346 2.097 4.407 2.099 5.753.003z"/><path class="st5" d="m59.923 144.936 6.095 9.499 2.401-3.614-3.776-5.885zM76.916 144.936l-6.096 9.499-2.401-3.614 3.776-5.885z"/><path class="st2" d="M69.274 154.983a.855.855 0 1 1-1.71 0 .855.855 0 0 1 1.71 0z"/><path class="st6" d="M72.196 137.892h-7.553V144.936l3.776 5.885 3.776-5.885v-.587h.001z"/><path class="st2" d="M51.856 171.124h1.752v-24.536c-.607.305-1.193.644-1.752 1.023v23.513zM83.231 171.124h1.752v-23.513a15.743 15.743 0 0 0-1.752-1.023v24.536z"/><path class="st4" d="M51.856 171.124v-23.513c-4.143 2.806-6.866 7.55-6.866 12.93v7.165a3.418 3.418 0 0 0 3.418 3.418h3.448zM84.983 147.611v23.513h3.448a3.418 3.418 0 0 0 3.418-3.418v-7.165c0-5.38-2.723-10.124-6.866-12.93z"/><g><circle transform="rotate(-45.001 68.418 121.221)" class="st4" cx="68.419" cy="121.22" r="15.706"/><path class="st8" d="M68.419 139.786c-6.573 0-11.901-5.328-11.901-11.901v-6.179c0-6.573 5.328-11.901 11.901-11.901 6.573 0 11.901 5.328 11.901 11.901v6.179c0 6.573-5.328 11.901-11.901 11.901z"/><path class="st9" d="M68.419 139.786c-1.32 0-2.59-.215-3.776-.612v2.269c1.188.398 2.455.622 3.776.622 1.322 0 2.589-.224 3.776-.622v-2.269a11.876 11.876 0 0 1-3.776.612z"/><path class="st8" d="M56.518 127.885v-3.719a3.833 3.833 0 1 0 .652 7.611 11.874 11.874 0 0 1-.652-3.892zM80.32 124.166v3.719c0 1.363-.23 2.673-.652 3.892a3.833 3.833 0 1 0 .652-7.611z"/><path class="st6" d="M68.419 138.077c-6.573 0-11.901-5.328-11.901-11.901v1.709c0 6.573 5.328 11.901 11.901 11.901 6.573 0 11.901-5.328 11.901-11.901v-1.709c0 6.573-5.328 11.901-11.901 11.901zM56.518 121.706v2.344c4.652-2.712 7.785-7.739 7.807-13.507-4.552 1.671-7.807 6.031-7.807 11.163z"/><path class="st6" d="M74.656 124.474c1.999 0 3.906-.385 5.664-1.066v-1.702c0-6.573-5.328-11.901-11.901-11.901-3.441 0-6.531 1.469-8.704 3.803 2.042 6.305 7.957 10.866 14.941 10.866z"/><path class="st2" d="M59.029 108.63c.788 7.936 7.484 14.135 15.627 14.135 3.521 0 6.771-1.159 9.391-3.116-.788-7.936-7.483-14.135-15.627-14.135a15.633 15.633 0 0 0-9.391 3.116z"/><path class="st4" d="M52.714 121.22c0 .715.052 1.417.145 2.106 6.616-1.849 11.47-7.917 11.47-15.123 0-.715-.052-1.417-.145-2.106-6.616 1.849-11.47 7.917-11.47 15.123z"/><path class="st2" d="M64.797 126.326a1.442 1.442 0 1 1-2.884 0 1.442 1.442 0 0 1 2.884 0zM75.983 126.326a1.443 1.443 0 1 1-2.885-.001 1.443 1.443 0 0 1 2.885.001z"/><g><path class="st6" d="M56.518 127.885v-2.089a2.203 2.203 0 1 0 0 4.406c.077 0 .151-.015.226-.023a11.945 11.945 0 0 1-.226-2.294zM80.331 127.885v-2.089a2.203 2.203 0 1 1 0 4.406c-.077 0-.151-.015-.226-.023.146-.742.226-1.508.226-2.294z"/></g></g><g><path class="st2" d="M207.592 171.124h-40.023a3.418 3.418 0 0 1-3.418-3.418v-7.165c0-8.619 6.987-15.605 15.605-15.605h15.648c8.619 0 15.605 6.987 15.605 15.605v7.165a3.416 3.416 0 0 1-3.417 3.418z"/><path class="st12" d="M207.592 171.124h-40.023a3.418 3.418 0 0 1-3.418-3.418v-7.165c0-8.619 6.987-15.605 15.605-15.605h15.648c8.619 0 15.605 6.987 15.605 15.605v7.165a3.416 3.416 0 0 1-3.417 3.418z"/><path class="st2" d="M183.253 159.896c2.024 3.154 6.632 3.154 8.656 0l8.966-13.973a15.574 15.574 0 0 0-5.47-.988h-15.648c-1.925 0-3.767.351-5.47.988l8.966 13.973z"/><path class="st4" d="m190.456 158.786 8.608-13.415a15.643 15.643 0 0 0-3.659-.436h-15.648a15.59 15.59 0 0 0-3.659.436l8.606 13.412c1.345 2.097 4.407 2.099 5.752.003z"/><path class="st5" d="m179.084 144.936 6.095 9.499 2.402-3.614-3.777-5.885zM196.077 144.936l-6.095 9.499-2.401-3.614 3.776-5.885z"/><path class="st2" d="M188.435 154.983a.855.855 0 1 1-1.71 0 .855.855 0 0 1 1.71 0z"/><path class="st6" d="M191.357 137.892h-7.553V144.936l3.777 5.885 3.776-5.885v-.587z"/><path class="st2" d="M171.017 171.124h1.752v-24.536c-.607.305-1.193.644-1.752 1.023v23.513zM202.393 171.124h1.752v-23.513a15.743 15.743 0 0 0-1.752-1.023v24.536z"/><path class="st4" d="M171.017 171.124v-23.513c-4.143 2.806-6.866 7.55-6.866 12.93v7.165a3.418 3.418 0 0 0 3.418 3.418h3.448zM204.144 147.611v23.513h3.448a3.418 3.418 0 0 0 3.418-3.418v-7.165c0-5.38-2.723-10.124-6.866-12.93z"/><g><circle transform="rotate(-22.5 187.572 121.215)" class="st4" cx="187.581" cy="121.22" r="15.706"/><path class="st8" d="M187.581 139.786c-6.573 0-11.901-5.328-11.901-11.901v-6.179c0-6.573 5.328-11.901 11.901-11.901 6.573 0 11.901 5.328 11.901 11.901v6.179c-.001 6.573-5.329 11.901-11.901 11.901z"/><path class="st9" d="M187.581 139.786c-1.32 0-2.59-.215-3.776-.612v2.269c1.188.398 2.455.622 3.776.622 1.322 0 2.589-.224 3.776-.622v-2.269a11.88 11.88 0 0 1-3.776.612z"/><path class="st8" d="M175.68 127.885v-3.719a3.833 3.833 0 1 0 .652 7.611 11.874 11.874 0 0 1-.652-3.892zM199.481 124.166v3.719c0 1.363-.23 2.673-.652 3.892a3.834 3.834 0 1 0 .652-7.611z"/><path class="st6" d="M187.581 138.077c-6.573 0-11.901-5.328-11.901-11.901v1.709c0 6.573 5.328 11.901 11.901 11.901 6.573 0 11.901-5.328 11.901-11.901v-1.709c-.001 6.573-5.329 11.901-11.901 11.901zM175.68 121.706v2.344c4.652-2.712 7.785-7.739 7.807-13.507-4.553 1.671-7.807 6.031-7.807 11.163z"/><path class="st6" d="M193.817 124.474c1.999 0 3.906-.385 5.664-1.066v-1.702c0-6.573-5.328-11.901-11.901-11.901-3.441 0-6.531 1.469-8.704 3.803 2.042 6.305 7.957 10.866 14.941 10.866z"/><path class="st2" d="M178.19 108.63c.788 7.936 7.484 14.135 15.627 14.135 3.521 0 6.771-1.159 9.391-3.116-.788-7.936-7.484-14.135-15.627-14.135a15.633 15.633 0 0 0-9.391 3.116z"/><path class="st4" d="M171.875 121.22c0 .715.052 1.417.145 2.106 6.615-1.849 11.47-7.917 11.47-15.123 0-.715-.052-1.417-.145-2.106-6.616 1.849-11.47 7.917-11.47 15.123z"/><path class="st2" d="M183.959 126.326a1.443 1.443 0 1 1-2.885-.001 1.443 1.443 0 0 1 2.885.001zM195.144 126.326a1.442 1.442 0 1 1-2.884 0 1.442 1.442 0 0 1 2.884 0z"/><g><path class="st6" d="M175.68 127.885v-2.089a2.203 2.203 0 1 0 0 4.406c.077 0 .151-.015.226-.023a11.866 11.866 0 0 1-.226-2.294zM199.493 127.885v-2.089a2.203 2.203 0 1 1 0 4.406c-.077 0-.151-.015-.226-.023.145-.742.226-1.508.226-2.294z"/></g></g></g></g><g><path class="st9" d="M146.865 108.223a3.826 3.826 0 0 0-3.826 3.827c0 1.136.504 2.145 1.29 2.845a19.41 19.41 0 0 0 1.714-3.2c.331-.326.656-.658.97-1 .169.014.338.026.51.026a6.272 6.272 0 0 0 5.009-2.498h-5.667z"/><path class="st3" d="M143.84 108.099c.188.08.396.124.613.124h8.077a6.25 6.25 0 0 0 1.28-3.791 6.25 6.25 0 0 0-1.158-3.628 25.758 25.758 0 0 0 1.111-7.494c0-1.048-.076-2.078-.198-3.093l-.002.001a14.532 14.532 0 0 0-5.845 4.131l-.003.004c-.18.211-.35.431-.519.653-.053.07-.108.137-.159.208-.141.193-.274.392-.405.592-.07.107-.141.212-.208.321-.113.183-.221.37-.326.559a13.21 13.21 0 0 0-.483.942 16.649 16.649 0 0 0-.42.992c-.068.179-.129.36-.19.542-.055.164-.11.328-.159.495-.059.203-.11.409-.161.615-.038.154-.079.306-.112.462-.05.239-.089.483-.128.726-.02.129-.047.256-.064.386a14.81 14.81 0 0 0-.106 1.142 1.572 1.572 0 0 0-1.398 1.558v2.101c.001.653.398 1.213.963 1.452z"/><path class="st9" d="M109.135 108.223h-5.667a6.272 6.272 0 0 0 5.009 2.498c.172 0 .342-.012.511-.026.313.343.638.675.969 1a19.39 19.39 0 0 0 1.715 3.201 3.801 3.801 0 0 0 1.29-2.846 3.827 3.827 0 0 0-3.827-3.827zM102.443 90.221l-.001-.001z"/><path class="st3" d="M111.724 102.989a14.81 14.81 0 0 0-.106-1.142c-.017-.13-.043-.257-.064-.387a14.202 14.202 0 0 0-.127-.724c-.033-.157-.074-.31-.112-.464-.05-.206-.101-.411-.16-.613-.049-.167-.104-.331-.159-.496a14.472 14.472 0 0 0-.19-.542 15.555 15.555 0 0 0-.683-1.53 14.93 14.93 0 0 0-.546-.963c-.067-.108-.137-.213-.207-.319-.132-.2-.265-.4-.406-.593-.051-.07-.105-.137-.157-.205a14.536 14.536 0 0 0-6.363-4.789l-.002-.001c-.03.251-.072.498-.095.752-.011.12-.018.241-.027.362-.05.653-.083 1.311-.083 1.977 0 .558.024 1.11.059 1.659l.016.213c.14 1.941.49 3.823 1.036 5.622a6.25 6.25 0 0 0-1.158 3.628 6.25 6.25 0 0 0 1.28 3.791h8.078a1.576 1.576 0 0 0 1.575-1.576v-2.101a1.571 1.571 0 0 0-1.399-1.559z"/></g><g><path class="st2" d="M160.827 171.174H95.172a5.607 5.607 0 0 1-5.607-5.607v-11.753c0-14.138 11.461-25.6 25.599-25.6h25.67c14.138 0 25.599 11.461 25.599 25.6v11.753a5.606 5.606 0 0 1-5.606 5.607z"/><path class="st4" d="M155.171 132.603v38.571h5.656a5.607 5.607 0 0 0 5.607-5.607v-11.753c0-8.826-4.467-16.609-11.263-21.211z"/><path class="st9" d="m141.938 128.214-7.744-3.337v3.337L128 137.868l-6.195-9.654v-3.337l-7.744 3.337 13.938 37.82H128z"/><path class="st8" d="m114.061 128.214 5.853 15.865a.935.935 0 0 0 1.538.337l6.548-6.548-6.194-9.654v-3.337l-7.745 3.337zM141.938 128.214l-5.853 15.865a.935.935 0 0 1-1.538.337L128 137.868l6.194-9.654v-3.337l7.744 3.337z"/><path class="st6" d="M134.194 116.659h-12.389v11.555l6.194 9.654 6.195-9.654v-.446z"/><path d="m133.185 143.053-3.864 3.864c-.73.73-1.913.73-2.643 0l-3.864-3.864 5.186-5.186 5.185 5.186z" style="fill:#ef5a9d"/><path d="M129.321 146.917c-.73.73-1.913.73-2.643 0l-1.324-1.324-1.148 10.146L128 166.037l3.794-10.298-1.148-10.145-1.325 1.323z" style="fill:#e43d91"/><path class="st5" d="m109.718 144.826 3.297-2.907c.61-.538.29-1.544-.519-1.63l-3.871-.414a.934.934 0 0 1-.779-1.248l3.678-10.15a23.203 23.203 0 0 1 2.551-.234L128 166.037l-18.351-19.876a.934.934 0 0 1 .069-1.335zM146.282 144.826l-3.297-2.907c-.61-.538-.29-1.544.519-1.63l3.871-.414a.934.934 0 0 0 .779-1.248l-3.678-10.15a23.225 23.225 0 0 0-2.551-.234L128 166.037l18.351-19.876a.936.936 0 0 0-.069-1.335zM150.75 163.406h-12.616a1.314 1.314 0 1 0 0 2.628h12.616a1.314 1.314 0 0 0 0-2.628z"/><path class="st4" d="M100.828 171.174v-38.571c-6.796 4.602-11.263 12.385-11.263 21.211v11.753a5.607 5.607 0 0 0 5.607 5.607h5.656z"/><g><circle class="st4" cx="128" cy="89.31" r="25.764"/><path class="st8" d="M127.999 119.767c-10.782 0-19.522-8.74-19.522-19.522V90.108c0-10.782 8.74-19.522 19.522-19.522 10.782 0 19.522 8.74 19.522 19.522v10.137c.001 10.781-8.74 19.522-19.522 19.522z"/><path class="st9" d="M127.999 119.767c-2.165 0-4.248-.353-6.195-1.004v3.722a19.471 19.471 0 0 0 6.194 1.02c2.168 0 4.246-.368 6.195-1.02v-3.722a19.482 19.482 0 0 1-6.194 1.004z"/><path class="st8" d="M108.477 100.245v-6.101a6.289 6.289 0 1 0 1.069 12.486 19.474 19.474 0 0 1-1.069-6.385zM147.522 94.144v6.101c0 2.236-.376 4.384-1.069 6.385a6.288 6.288 0 0 0 7.357-6.198 6.288 6.288 0 0 0-6.288-6.288z"/><path class="st6" d="M127.999 116.963c-10.782 0-19.522-8.74-19.522-19.522v2.804c0 10.782 8.74 19.522 19.522 19.522 10.782 0 19.522-8.74 19.522-19.522v-2.804c.001 10.782-8.74 19.522-19.522 19.522zM108.477 90.108v3.845c7.631-4.448 12.771-12.695 12.807-22.156-7.468 2.74-12.807 9.892-12.807 18.311z"/><path class="st6" d="M138.23 94.648a25.67 25.67 0 0 0 9.292-1.748v-2.791c0-10.782-8.74-19.522-19.522-19.522-5.644 0-10.713 2.409-14.278 6.239 3.348 10.34 13.051 17.822 24.508 17.822z"/><path class="st2" d="M112.595 68.658c1.293 13.019 12.276 23.187 25.635 23.187a25.651 25.651 0 0 0 15.405-5.111C152.341 73.715 141.359 63.547 128 63.547a25.651 25.651 0 0 0-15.405 5.111z"/><path class="st4" d="M102.236 89.31c0 1.173.086 2.324.237 3.455 10.852-3.034 18.815-12.987 18.815-24.808 0-1.173-.086-2.324-.237-3.456-10.852 3.035-18.815 12.989-18.815 24.809z"/><circle class="st2" cx="119.693" cy="97.687" r="2.365"/><circle class="st2" cx="138.042" cy="97.687" r="2.365"/><g><path class="st6" d="M108.477 100.245v-3.426a3.613 3.613 0 1 0 0 7.227c.127 0 .247-.025.371-.037a19.617 19.617 0 0 1-.371-3.764zM147.54 100.245v-3.426a3.613 3.613 0 1 1 0 7.227c-.127 0-.247-.025-.371-.037.239-1.219.371-2.476.371-3.764z"/></g></g></g></g></g></switch></svg>